<?xml version="1.0" standalone="no"?>
<!DOCTYPE svg PUBLIC "-//W3C//DTD SVG 20010904//EN"
 "http://www.w3.org/TR/2001/REC-SVG-20010904/DTD/svg10.dtd">
<svg version="1.0" xmlns="http://www.w3.org/2000/svg"
 width="192.000000pt" height="192.000000pt" viewBox="0 0 192.000000 192.000000"
 preserveAspectRatio="xMidYMid meet">
<metadata>
Created by potrace 1.14, written by Peter Selinger 2001-2017
</metadata>
<g transform="translate(0.000000,192.000000) scale(0.100000,-0.100000)"
fill="#000000" stroke="none">
<path d="M0 960 l0 -960 119 0 118 0 45 93 c118 241 301 385 543 426 180 31
225 49 274 108 39 48 56 101 76 238 28 199 64 287 151 371 108 103 310 182
537 209 l57 7 0 234 0 234 -960 0 -960 0 0 -960z m624 569 c16 -8 38 -38 63
-88 37 -75 39 -77 111 -111 83 -40 92 -50 92 -103 0 -47 -26 -74 -100 -102
-62 -24 -66 -28 -110 -118 -29 -60 -40 -73 -67 -81 -52 -14 -91 8 -119 68 -13
28 -24 56 -24 62 0 19 -43 51 -108 79 -69 31 -82 46 -82 100 0 43 28 73 86 94
67 23 85 41 120 117 41 90 76 111 138 83z"/>
</g>
</svg>
